# xmcd
#
# Track frame offsets:
#	150
#	9367
#	20125
#	33685
#	46252
#	55977
#	65637
#	78762
#	91735
#	102222
#	115675
#	128780
#	140412
#	153435
#	167372
#	179602
#	190275
#	202925
#	213317
#	223157
#	236670
#	246512
#	257070
#	266845
#	280312
#	294087
#	306752
#
# Disc length: 4249 seconds
#
# Revision: 4
# Processed by: cddbd v1.5.2PL0 Copyright (c) Steve Scherf et al.
# Submitted via: EZCDAudioConverter 7.2.1.1
#
DISCID=8710971b
DTITLE=Merle Haggard - Untamed Hawk;Disc 2 of 5
DYEAR=1995
DGENRE=Country
TTITLE0=Merle Haggard with Bonnie Owens - I'll Take A Chance (1965  ST 2453)
TTITLE1=Merle Haggard with Bonnie Owens - Our Hearts Are Holding Hands (1965  
TTITLE1=ST 2453)
TTITLE2=Merle Haggard with Bonnie Owens - Too Used To Being With You (1965  ST
TTITLE2=2453)
TTITLE3=Merle Haggard with Bonnie Owens - That Makes Two Of Us (1965  ST 2453)
TTITLE4=Merle Haggard with Bonnie Owens - Forever And Ever (1965  ST 2453)
TTITLE5=Merle Haggard with Bonnie Owens - Wait A Little Longer, Please Jesus (
TTITLE5=1965  ST 2453)
TTITLE6=Merle Haggard - Swinging Doors (Recorded 1965 - Released 1966  ST 2585
TTITLE6=)
TTITLE7=Merle Haggard - Swinging Doors (Alternate Take) (Recorded 1965 - Relea
TTITLE7=sed 1993 CDP 793191-2)
TTITLE8=Merle Haggard - The Girl Turned Ripe (Recorded 1965 - Released 1966  S
TTITLE8=T 2585)
TTITLE9=Merle Haggard - I Threw Away The Rose (Recorded 1966 - Released 1995)
TTITLE10=Merle Haggard - I'm A Lonesome Fugitive (Recorded 1966 - Released 199
TTITLE10=5)
TTITLE11=Merle Haggard - Loneliness Is Eating Me Alive (Recorded 1966 - Releas
TTITLE11=ed 1995)
TTITLE12=Merle Haggard - Someone Told My Story (Recorded 1966 - Released 1995)
TTITLE13=Merle Haggard - I Threw Away The Rose (Recorded 1966 - Released 1995)
TTITLE14=Merle Haggard - Hang Up My Gloves (Recorded 1966 - Released 1995)
TTITLE15=Merle Haggard - The Longer You Wait (1966  ST 2585)
TTITLE16=Merle Haggard - The Bottle Let Me Down (1966  ST 2585)
TTITLE17=Merle Haggard - I Can't Stand Me (1966  ST 2585)
TTITLE18=Merle Haggard - Somebody Else You've Known (1966  ST 2585)
TTITLE19=Merle Haggard - High On A Hilltop (1966  ST 2585)
TTITLE20=Merle Haggard - I'll Look Over You (1966  ST 2585)
TTITLE21=Merle Haggard - No More You And Me (1966  ST 2585)
TTITLE22=Merle Haggard - Mixed Up Mess Of A Heart (1966  ST 2702)
TTITLE23=Merle Haggard - I'm A Lonesome Fugitive (1966  ST 2702)
TTITLE24=Merle Haggard - Life In Prison (1966  ST 2702)
TTITLE25=Merle Haggard - House Of Memories (1966  ST 2702)
TTITLE26=Merle Haggard - All Of You Belongs To You (1966  ST 2702)
EXTD=
EXTT0=
EXTT1=
EXTT2=
EXTT3=
EXTT4=
EXTT5=
EXTT6=
EXTT7=
EXTT8=
EXTT9=
EXTT10=
EXTT11=
EXTT12=
EXTT13=
EXTT14=
EXTT15=
EXTT16=
EXTT17=
EXTT18=
EXTT19=
EXTT20=
EXTT21=
EXTT22=
EXTT23=
EXTT24=
EXTT25=
EXTT26=
PLAYORDER=
